<?xml version="1.0" encoding="UTF-8" standalone="no"?>
<svg
   xmlns:dc="http://purl.org/dc/elements/1.1/"
   xmlns:cc="http://creativecommons.org/ns#"
   xmlns:rdf="http://www.w3.org/1999/02/22-rdf-syntax-ns#"
   xmlns:svg="http://www.w3.org/2000/svg"
   xmlns="http://www.w3.org/2000/svg"
   xmlns:sodipodi="http://sodipodi.sourceforge.net/DTD/sodipodi-0.dtd"
   xmlns:inkscape="http://www.inkscape.org/namespaces/inkscape"
   version="1.1"
   id="svg833"
   xml:space="preserve"
   width="408.51035"
   height="142.69035"
   viewBox="0 0 408.51034 142.69035"
   sodipodi:docname="datalbry_logo.svg"
   inkscape:version="1.0.2 (e86c8708, 2021-01-15)"><metadata
     id="metadata839"><rdf:RDF><cc:Work
         rdf:about=""><dc:format>image/svg+xml</dc:format><dc:type
           rdf:resource="http://purl.org/dc/dcmitype/StillImage" /><dc:title></dc:title></cc:Work></rdf:RDF></metadata><defs
     id="defs837"><clipPath
       clipPathUnits="userSpaceOnUse"
       id="clipPath851"><path
         d="M 3175.97,8309.84 H 12777.3 V 11647.8 H 3175.97 Z"
         id="path849" /></clipPath><clipPath
       clipPathUnits="userSpaceOnUse"
       id="clipPath1041"><path
         d="m 8463.37,3395.73 c -6.85,-7.4 -14.79,-13.25 -23.6,-17.37 -8.98,-4.22 -18.65,-6.36 -28.73,-6.36 -27.06,0 -47.94,7.03 -62.08,20.86 -6.86,6.73 -12.08,14.68 -15.64,23.79 -7.93,19.73 -1.98,34.24 -1.13,35.92 2.87,5.68 7.01,11.33 12.18,16.59 10.34,10.58 24.73,19.54 40.83,26.52 29.63,12.8 64.18,19.48 99.37,22.97 -0.53,-25.47 -1.25,-51.27 -2.22,-69.74 -0.71,-13.53 -6.96,-36.17 -9.71,-40.75 -2.75,-4.58 -5.84,-8.73 -9.27,-12.43 z m 442.02,359.89 c -9.08,22.19 -23.64,42.66 -41.91,58.36 -18.23,15.8 -39.64,26.85 -61.63,33.82 -15.38,4.86 -31.09,7.71 -46.88,8.99 -1.97,26.12 -4.77,52.67 -10.01,79.08 -6.53,33.2 -16.88,66.29 -32.66,97.01 -15.66,30.75 -36.82,58.8 -61.82,82.31 -24.99,23.57 -53.54,42.68 -83.53,57.93 l -0.77,0.39 -0.41,0.17 c -34.55,14.47 -71.51,23.73 -109,26.31 -37.47,2.72 -75.21,-1.04 -111.31,-10.09 -36.14,-9 -70.68,-23.16 -103.02,-40.86 -27.05,-14.99 -52.34,-31.95 -76.23,-52.04 -6.78,15.69 -14.37,30.43 -22.63,45.2 -11.24,19.9 -23.71,39.07 -37.36,57.38 -27.28,36.58 -59.38,69.73 -95.92,97.2 -36.46,27.52 -77.41,49.12 -120.72,63.28 -43.3,14.25 -88.75,21.06 -133.97,21.46 -45.11,0.35 -90.47,-4.49 -134.2,-15.61 -43.72,-11.15 -85.8,-28.68 -124.19,-52.19 -38.43,-23.44 -73.06,-52.81 -102.86,-86.3 -13.75,-15.6 -26.66,-32.02 -38.36,-49.21 -6.48,-9.54 10.45,14.46 40.6,47.16 30.36,32.59 65.32,60.86 103.73,83.13 38.38,22.31 80.12,38.57 123.23,48.53 43.2,9.94 87.53,13.69 131.76,12.29 44.1,-1.51 87.91,-9.26 129.21,-24.02 41.32,-14.68 79.96,-36.35 114.17,-63.55 34.27,-27.16 64.17,-59.64 89.42,-95.33 25.01,-35.55 46.5,-75.01 60.65,-114.93 l 6.49,-18.33 14.68,13.12 c 25.14,22.48 54.95,42.43 85.48,58.64 30.75,16.25 63.3,28.99 96.87,36.81 33.53,7.86 68.06,10.73 102.08,7.76 33.79,-2.84 66.9,-11.65 98.07,-25.16 27.08,-14.89 52.14,-32.93 73.53,-54.4 21.53,-21.56 39.18,-46.56 52.11,-73.96 12.99,-27.38 21.33,-56.99 26.38,-87.47 5.07,-30.55 6.79,-61.88 7.83,-94.03 l 0.66,-20.71 21.39,-0.28 c 36.38,-0.47 73.03,-11.99 97.99,-34.79 25.3,-22.44 37.05,-56.57 36.98,-92.38 0.55,-36.99 -10.15,-70.51 -34.69,-90.74 -24.28,-20.71 -60.77,-28.84 -97.79,-29.08 -9.32,-0.07 -18.72,0.28 -28.18,1.05 -9.68,0.74 -18.34,1.91 -29.03,3.36 -20.66,2.74 -41.43,5.08 -62.32,6.88 -19.31,1.65 -38.75,2.81 -58.28,3.42 0.27,12.06 0.41,22.03 0.41,28.56 v 353.61 h -73.59 v -205.99 c 0,-21.99 -7.71,-40.42 -22.94,-54.81 -15.05,-14.23 -34.92,-21.44 -59.05,-21.44 -31.83,0 -69.77,13.23 -69.77,76.25 v 205.99 h -73.59 v -219.69 c 0,-18.26 3.01,-34.76 8.94,-49.08 5.94,-14.3 14.28,-26.75 24.77,-37.01 10.48,-10.26 23.11,-18.24 37.59,-23.71 14.64,-5.55 30.89,-8.36 48.29,-8.36 20.39,0 38.87,4.12 54.89,12.24 32.3,18.62 50.87,48.62 50.87,48.62 v -20.45 -57.6 c 0,-0.42 -0.08,-11.53 -0.28,-28.11 -41.24,-2.8 -83.32,-8.81 -125.09,-25.45 -21.55,-8.81 -43.22,-20.77 -62.13,-38.97 -9.38,-9.09 -17.97,-19.77 -24.69,-32.17 -3.36,-6.21 -6.25,-12.81 -8.48,-19.9 -1.13,-3.54 -2.08,-7.2 -2.85,-11.08 -0.38,-1.95 -2.24,-13.77 -0.13,-29.72 4.09,-30.74 15.58,-55.89 34.3,-74.96 23.86,-24.29 60.95,-36.61 110.23,-36.61 21.26,0 41.56,3.44 60.33,10.2 18.55,6.72 34.85,16.45 48.48,28.93 9.04,8.32 16.87,18.04 23.4,29.03 3.22,5.43 11.52,30.48 12.77,44.3 2.26,24.83 4.15,62.38 5.5,97.88 18.52,-0.12 37.15,-0.79 55.79,-1.93 19.92,-1.23 39.88,-2.99 59.84,-5.16 9.6,-1.07 21.26,-2.4 32,-2.95 10.96,-0.65 22.03,-0.83 33.18,-0.51 22.27,0.72 45.01,3.58 67.54,10.33 22.42,6.68 44.87,17.71 63.68,34.39 18.9,16.55 32.92,38.77 40.62,61.84 7.8,23.06 10.08,46.96 9.42,69.21 -0.69,23.18 -4.72,46.38 -13.88,68.7 z"
         id="path1039" /></clipPath><linearGradient
       x1="0"
       y1="0"
       x2="1"
       y2="0"
       gradientUnits="userSpaceOnUse"
       gradientTransform="matrix(-1.5e-5,343.971,343.971,1.5e-5,8137,3678.48)"
       spreadMethod="pad"
       id="linearGradient1049"><stop
         style="stop-opacity:1;stop-color:#202532"
         offset="0"
         id="stop1043" /><stop
         style="stop-opacity:1;stop-color:#ab5349"
         offset="0.752124"
         id="stop1045" /><stop
         style="stop-opacity:1;stop-color:#f06648"
         offset="1"
         id="stop1047" /></linearGradient></defs><sodipodi:namedview
     pagecolor="#ffffff"
     bordercolor="#666666"
     borderopacity="1"
     objecttolerance="10"
     gridtolerance="10"
     guidetolerance="10"
     inkscape:pageopacity="0"
     inkscape:pageshadow="2"
     inkscape:window-width="3440"
     inkscape:window-height="1359"
     id="namedview835"
     showgrid="false"
     inkscape:zoom="0.35400342"
     inkscape:cx="784.21668"
     inkscape:cy="-99.320398"
     inkscape:window-x="0"
     inkscape:window-y="25"
     inkscape:window-maximized="0"
     inkscape:current-layer="g843"
     inkscape:document-rotation="0" /><g
     id="g841"
     inkscape:groupmode="layer"
     inkscape:label="ink_ext_XXXXXX"
     transform="matrix(1.3333333,0,0,-1.3333333,-775.09031,889.06195)"><g
       id="g843"
       transform="scale(0.1)"><path
         d="m 5993.1775,5996.9071 c 43.67,0 75.35,13.56 95.04,40.68 19.67,27.11 29.52,67.8 29.52,122.05 0,26.88 -2.41,49.91 -7.2,69.11 -4.8,19.2 -12.6,34.92 -23.4,47.16 -10.8,12.25 -24.61,21.12 -41.4,26.65 -16.8,5.5 -37.21,8.28 -61.2,8.28 h -74.16 v -313.93 z m -180,-81.35 v 478.07 h 185.04 c 32.15,0 61.92,-5.39 89.27,-16.19 27.37,-10.8 50.77,-26.29 70.21,-46.45 19.44,-20.15 34.68,-44.63 45.72,-73.43 11.04,-28.81 16.55,-61.45 16.55,-97.92 0,-36.48 -4.92,-69.74 -14.75,-99.72 -9.85,-30 -23.88,-55.69 -42.12,-77.05 -18.24,-21.35 -40.08,-37.91 -65.52,-49.67 -25.45,-11.78 -53.52,-17.64 -84.25,-17.64 h -200.15"
         style="fill:#202532;fill-opacity:1;fill-rule:nonzero;stroke:none"
         id="path1005" /><path
         d="m 6458.2975,6089.0771 c -4.8,-4.81 -11.76,-8.65 -20.88,-11.52 -9.13,-2.88 -22.31,-6.02 -39.59,-9.36 -26.9,-5.29 -45.37,-12.01 -55.44,-20.16 -10.09,-8.18 -15.13,-19.92 -15.13,-35.29 0,-26.41 15.13,-39.59 45.37,-39.59 11.99,0 23.14,2.03 33.48,6.11 10.31,4.09 19.19,9.59 26.64,16.57 7.43,6.95 13.42,15.11 18,24.47 4.56,9.37 6.84,19.32 6.84,29.88 z m 6.48,-173.52 c -2.87,9.1 -4.81,19.67 -5.75,31.68 -11.05,-12.5 -25.69,-22.44 -43.92,-29.88 -18.25,-7.44 -39.37,-11.17 -63.36,-11.17 -40.81,0 -70.68,9 -89.65,27.01 -18.96,17.99 -28.43,41.39 -28.43,70.19 0,25.43 4.07,45.73 12.24,60.84 8.15,15.12 19.43,27 33.83,35.65 14.4,8.63 31.56,15 51.48,19.08 19.92,4.06 41.64,7.79 65.16,11.15 23.52,3.36 39.36,7.8 47.52,13.32 8.16,5.51 12.25,14.52 12.25,27 0,11.52 -5.4,20.52 -16.21,27.01 -10.8,6.48 -25.32,9.72 -43.56,9.72 -21.6,0 -37.07,-4.8 -46.44,-14.41 -9.36,-9.61 -15.24,-22.32 -17.64,-38.16 h -87.11 c 0.47,18.24 3.48,35.04 8.99,50.41 5.52,15.35 14.41,28.55 26.64,39.59 12.24,11.05 28.2,19.57 47.88,25.56 19.68,6 43.68,9.01 72.01,9.01 27.83,0 51.47,-3.13 70.91,-9.36 19.45,-6.25 35.03,-15.25 46.81,-27.01 11.75,-11.76 20.27,-26.41 25.55,-43.91 5.28,-17.54 7.93,-37.34 7.93,-59.41 v -223.91 h -87.13"
         style="fill:#202532;fill-opacity:1;fill-rule:nonzero;stroke:none"
         id="path1007" /><path
         d="m 6793.8175,6148.8371 h 87.12 v -100.8 c 0,-18.73 -2.76,-36.62 -8.27,-53.65 -5.53,-17.03 -14.17,-32.17 -25.93,-45.35 -11.77,-13.2 -26.64,-23.65 -44.64,-31.33 -18.01,-7.67 -39.49,-11.52 -64.43,-11.52 -25.93,0 -48.01,3.85 -66.25,11.52 -18.24,7.68 -33.24,18.01 -45,30.96 -11.76,12.97 -20.28,28.08 -25.56,45.37 -5.28,17.28 -7.92,35.51 -7.92,54.71 v 316.81 h 92.16 v -95.76 h 195.84 v -66.25 h -195.84 v -145.43 c 0,-22.58 4.2,-39.96 12.61,-52.21 8.38,-12.24 22.19,-18.35 41.38,-18.35 18.74,0 32.52,5.99 41.41,18 8.88,12 13.32,29.03 13.32,51.12 v 92.16"
         style="fill:#202532;fill-opacity:1;fill-rule:nonzero;stroke:none"
         id="path1009" /><path
         d="m 7134.3675,6089.0771 c -4.81,-4.81 -11.76,-8.65 -20.88,-11.52 -9.12,-2.88 -22.32,-6.02 -39.59,-9.36 -26.89,-5.29 -45.37,-12.01 -55.45,-20.16 -10.08,-8.18 -15.12,-19.92 -15.12,-35.29 0,-26.41 15.12,-39.59 45.36,-39.59 12,0 23.16,2.03 33.49,6.11 10.31,4.09 19.18,9.59 26.64,16.57 7.42,6.95 13.42,15.11 17.99,24.47 4.56,9.37 6.85,19.32 6.85,29.88 z m 6.48,-173.52 c -2.88,9.1 -4.8,19.67 -5.76,31.68 -11.04,-12.5 -25.68,-22.44 -43.92,-29.88 -18.25,-7.44 -39.36,-11.17 -63.35,-11.17 -40.81,0 -70.69,9 -89.64,27.01 -18.97,17.99 -28.44,41.39 -28.44,70.19 0,25.43 4.06,45.73 12.24,60.84 8.15,15.12 19.44,27 33.83,35.65 14.4,8.63 31.57,15 51.49,19.08 19.9,4.06 41.63,7.79 65.15,11.15 23.52,3.36 39.36,7.8 47.52,13.32 8.16,5.51 12.25,14.52 12.25,27 0,11.52 -5.41,20.52 -16.21,27.01 -10.8,6.48 -25.31,9.72 -43.56,9.72 -21.6,0 -37.08,-4.8 -46.44,-14.41 -9.36,-9.61 -15.24,-22.32 -17.64,-38.16 h -87.12 c 0.48,18.24 3.48,35.04 9,50.41 5.51,15.35 14.41,28.55 26.64,39.59 12.24,11.05 28.2,19.57 47.89,25.56 19.67,6 43.67,9.01 71.99,9.01 27.83,0 51.49,-3.13 70.92,-9.36 19.44,-6.25 35.04,-15.25 46.81,-27.01 11.74,-11.76 20.27,-26.41 25.55,-43.91 5.28,-17.54 7.92,-37.34 7.92,-59.41 v -223.91 h -87.12"
         style="fill:#202532;fill-opacity:1;fill-rule:nonzero;stroke:none"
         id="path1011" /><path
         d="m 7356.9275,6373.6271 v -390.96 h 206.87 v -67.11 h -286.95 v 458.07 h 80.08"
         style="fill:#f06648;fill-opacity:1;fill-rule:nonzero;stroke:none"
         id="path1013" /><path
         d="m 7767.4675,5962.5171 c 26.73,0 48.8,11.4 65.62,33.89 16.13,21.58 24.31,49.64 24.31,83.39 0,98.71 -49.29,119.43 -90.64,119.43 -40.37,0 -88.49,-21.71 -88.49,-125.19 0,-32.46 8.38,-59.28 24.91,-79.72 17.03,-21.1 38.66,-31.8 64.29,-31.8 m -85.59,416.87 v -165.68 -31.22 l 18.13,25.41 c 24.63,34.49 56.36,51.26 97,51.26 21.35,0 40.57,-4.13 57.12,-12.29 16.52,-8.15 30.72,-19.9 42.19,-34.9 11.69,-15.28 20.7,-33.68 26.8,-54.68 6.18,-21.34 9.31,-45.23 9.31,-71.02 0,-28.56 -3.71,-54.4 -11.03,-76.8 -7.25,-22.23 -17.3,-41.23 -29.89,-56.51 -12.41,-15.07 -27.55,-26.75 -45.01,-34.7 -17.6,-8.01 -36.92,-12.07 -57.42,-12.07 -40.82,0 -70.3,15.63 -90.12,47.8 l -17.94,29.1 -0.58,-34.18 -0.55,-33.35 h -70.17 v 463.83 h 72.16"
         style="fill:#f06648;fill-opacity:1;fill-rule:nonzero;stroke:none"
         id="path1015" /><path
         d="m 8172.1775,6259.1571 v -74.37 c -5.31,0.52 -10.63,0.77 -15.92,0.77 -62.59,0 -95.66,-33.08 -95.66,-95.68 v -174.32 h -73.61 v 334.24 h 67.85 v -32.48 -34.25 l 18.42,28.87 c 7.03,11 14.41,19.62 21.96,25.64 7.6,6.1 15.47,10.81 23.42,14.03 7.96,3.23 16.14,5.3 24.27,6.16 8.8,0.92 17.89,1.39 27.04,1.39 h 2.23"
         style="fill:#f06648;fill-opacity:1;fill-rule:nonzero;stroke:none"
         id="path1017" /><path
         d="m 8420.9975,5682.1571 c -6.85,-7.4 -14.79,-13.25 -23.6,-17.37 -8.98,-4.22 -18.65,-6.36 -28.73,-6.36 -27.06,0 -47.94,7.03 -62.08,20.86 -6.86,6.73 -12.08,14.68 -15.64,23.79 -7.93,19.73 -1.98,34.24 -1.13,35.92 2.87,5.68 7.01,11.33 12.18,16.59 10.34,10.58 24.73,19.54 40.83,26.52 29.63,12.8 64.18,19.48 99.37,22.97 -0.53,-25.47 -1.25,-51.27 -2.22,-69.74 -0.71,-13.53 -6.96,-36.17 -9.71,-40.75 -2.75,-4.58 -5.84,-8.73 -9.27,-12.43 z m 442.02,359.89 c -9.08,22.19 -23.64,42.66 -41.91,58.36 -18.23,15.8 -39.64,26.85 -61.63,33.81 -15.38,4.87 -31.09,7.72 -46.88,9 -1.97,26.12 -4.77,52.67 -10.01,79.08 -6.53,33.2 -16.88,66.29 -32.66,97.01 -15.66,30.75 -36.82,58.8 -61.82,82.31 -24.99,23.57 -53.54,42.68 -83.53,57.93 l -0.77,0.39 -0.41,0.17 c -34.55,14.47 -71.51,23.73 -109,26.31 -37.47,2.72 -75.21,-1.04 -111.31,-10.09 -36.14,-9 -70.68,-23.16 -103.02,-40.86 -27.05,-15 -52.34,-31.95 -76.23,-52.04 -6.78,15.69 -14.37,30.43 -22.63,45.2 -11.24,19.9 -23.71,39.07 -37.36,57.38 -27.28,36.58 -59.38,69.73 -95.92,97.2 -36.46,27.52 -77.41,49.12 -120.72,63.28 -43.3,14.25 -88.75,21.06 -133.97,21.46 -45.11,0.35 -90.47,-4.49 -134.2,-15.61 -43.72,-11.15 -85.8,-28.68 -124.19,-52.19 -38.43,-23.44 -73.06,-52.81 -102.86,-86.3 -13.75,-15.6 -26.66,-32.02 -38.36,-49.21 -6.48,-9.54 10.45,14.46 40.6,47.16 30.36,32.59 65.32,60.86 103.73,83.13 38.38,22.31 80.12,38.57 123.23,48.53 43.2,9.93 87.53,13.68 131.76,12.29 44.1,-1.51 87.91,-9.26 129.21,-24.02 41.32,-14.68 79.96,-36.35 114.17,-63.55 34.27,-27.16 64.17,-59.64 89.42,-95.33 25.01,-35.55 46.5,-75.01 60.65,-114.93 l 6.49,-18.33 14.68,13.12 c 25.14,22.48 54.95,42.43 85.48,58.64 30.75,16.25 63.3,28.99 96.87,36.81 33.53,7.86 68.06,10.73 102.08,7.76 33.79,-2.84 66.9,-11.65 98.07,-25.16 27.08,-14.89 52.14,-32.93 73.53,-54.4 21.53,-21.56 39.18,-46.56 52.11,-73.96 12.99,-27.38 21.33,-56.99 26.38,-87.47 5.07,-30.55 6.79,-61.88 7.83,-94.03 l 0.66,-20.71 21.39,-0.28 c 36.38,-0.47 73.03,-11.99 97.99,-34.79 25.3,-22.44 37.05,-56.57 36.98,-92.38 0.55,-36.99 -10.15,-70.51 -34.69,-90.74 -24.28,-20.71 -60.77,-28.84 -97.79,-29.08 -9.32,-0.07 -18.72,0.28 -28.18,1.05 -9.68,0.74 -18.34,1.91 -29.03,3.36 -20.66,2.74 -41.43,5.08 -62.32,6.88 -19.31,1.65 -38.75,2.81 -58.28,3.42 0.27,12.06 0.41,22.03 0.41,28.56 v 353.61 h -73.59 v -205.99 c 0,-21.99 -7.71,-40.42 -22.94,-54.81 -15.05,-14.23 -34.92,-21.44 -59.05,-21.44 -31.83,0 -69.77,13.23 -69.77,76.25 v 205.99 h -73.59 v -219.69 c 0,-18.26 3.01,-34.76 8.94,-49.08 5.94,-14.3 14.28,-26.75 24.77,-37.01 10.48,-10.26 23.11,-18.24 37.59,-23.71 14.64,-5.55 30.89,-8.36 48.29,-8.36 20.39,0 38.87,4.12 54.89,12.24 32.3,18.62 50.87,48.62 50.87,48.62 v -20.45 -57.6 c 0,-0.42 -0.08,-11.53 -0.28,-28.11 -41.24,-2.8 -83.32,-8.81 -125.09,-25.45 -21.55,-8.81 -43.22,-20.77 -62.13,-38.97 -9.38,-9.09 -17.97,-19.77 -24.69,-32.17 -3.36,-6.21 -6.25,-12.81 -8.48,-19.9 -1.13,-3.54 -2.08,-7.2 -2.85,-11.08 -0.38,-1.95 -2.24,-13.77 -0.13,-29.72 4.09,-30.74 15.58,-55.89 34.3,-74.96 23.86,-24.29 60.95,-36.61 110.23,-36.61 21.26,0 41.56,3.44 60.33,10.2 18.55,6.72 34.85,16.45 48.48,28.93 9.04,8.32 16.87,18.04 23.4,29.03 3.22,5.43 11.52,30.48 12.77,44.3 2.26,24.83 4.15,62.38 5.5,97.88 18.52,-0.12 37.15,-0.79 55.79,-1.93 19.92,-1.23 39.88,-2.99 59.84,-5.16 9.6,-1.07 21.26,-2.4 32,-2.95 10.96,-0.65 22.03,-0.83 33.18,-0.51 22.27,0.72 45.01,3.58 67.54,10.33 22.42,6.68 44.87,17.71 63.68,34.39 18.9,16.55 32.92,38.77 40.62,61.84 7.8,23.06 10.08,46.96 9.42,69.21 -0.69,23.18 -4.72,46.38 -13.88,68.7"
         style="fill:#f06648;fill-opacity:1;fill-rule:nonzero;stroke:none"
         id="path1019" /></g></g></svg>
